<?xml version="1.0" encoding="utf-8"?>
<!-- Generator: Adobe Illustrator 23.0.2, SVG Export Plug-In . SVG Version: 6.00 Build 0)  -->
<svg version="1.1" xmlns="http://www.w3.org/2000/svg" xmlns:xlink="http://www.w3.org/1999/xlink" x="0px" y="0px"
	 viewBox="0 0 3710 3710" style="enable-background:new 0 0 3710 3710;" xml:space="preserve">
<style type="text/css">
	.st0{fill:none;}
	.st1{fill:url(#SVGID_1_);}
	.st2{fill:url(#SVGID_2_);}
	.st3{fill:url(#SVGID_3_);}
	.st4{fill:url(#SVGID_4_);}
	.st5{opacity:0.3;}
	.st6{fill:url(#SVGID_5_);}
	.st7{fill:#FFFFFF;}
	.st8{opacity:0.48;fill:#FFFFFF;}
	.st9{fill:url(#SVGID_6_);}
	.st10{opacity:0.3;fill:url(#SVGID_7_);}
	.st11{fill:url(#SVGID_8_);}
	.st12{opacity:0.74;fill:#FFFFFF;}
	.st13{fill:url(#SVGID_9_);}
	.st14{fill:url(#SVGID_10_);}
	.st15{opacity:0.5;}
	.st16{fill:url(#SVGID_11_);}
	.st17{fill:url(#SVGID_12_);}
	.st18{fill:url(#SVGID_13_);}
	.st19{opacity:0.15;}
	.st20{fill:url(#SVGID_14_);}
	.st21{fill:url(#SVGID_15_);}
	.st22{fill:url(#SVGID_16_);}
	.st23{fill:url(#SVGID_17_);}
</style>
<g id="Background">
</g>
<g id="Illustration">
	<g id="Cross-platform_software">
		<circle class="st0" cx="1804.6" cy="1855" r="1400"/>
		<g>
			<linearGradient id="SVGID_1_" gradientUnits="userSpaceOnUse" x1="1630.1758" y1="2949.0974" x2="1432.6193" y2="3032.071">
				<stop  offset="0" style="stop-color:#40447E"/>
				<stop  offset="0.9964" style="stop-color:#3C3B6B"/>
			</linearGradient>
			<path class="st1" d="M3255.1,2842.2l-2813.8-23.2v68.5c0,18.6,12.3,34.4,28.9,37.2l795.6,134.9c9.4,1.6,19,2,28.5,1.3
				l1930.1-153.9c17.2-1.4,30.6-17.2,30.6-36.3V2842.2z"/>
			<g>
				<linearGradient id="SVGID_2_" gradientUnits="userSpaceOnUse" x1="1309.8665" y1="2121.1147" x2="1108.0486" y2="2205.8784">
					<stop  offset="0" style="stop-color:#40447E"/>
					<stop  offset="0.9964" style="stop-color:#3C3B6B"/>
				</linearGradient>
				<path class="st2" d="M2234,2731.1L470.4,2856.5c-31.6,2.2-57.2-21.6-57.2-53.2V1535.1c0-31.7,25.7-57.3,57.2-57.3H2234
					c26,0,47,23.2,47,51.8V2676C2281,2704.6,2260,2729.3,2234,2731.1z"/>
				<linearGradient id="SVGID_3_" gradientUnits="userSpaceOnUse" x1="441.3085" y1="2167.2371" x2="2309.1123" y2="2167.2371">
					<stop  offset="0" style="stop-color:#40447E"/>
					<stop  offset="0.9964" style="stop-color:#3C3B6B"/>
				</linearGradient>
				<path class="st3" d="M2262.1,2731.1L498.5,2856.5c-31.6,2.2-57.2-21.6-57.2-53.2V1535.1c0-31.7,25.7-57.3,57.2-57.3h1763.6
					c26,0,47,23.2,47,51.8V2676C2309.1,2704.6,2288.1,2729.3,2262.1,2731.1z"/>
				<linearGradient id="SVGID_4_" gradientUnits="userSpaceOnUse" x1="1621.936" y1="1713.0339" x2="185.9591" y2="4060.5454">
					<stop  offset="0" style="stop-color:#FFC444"/>
					<stop  offset="0.9964" style="stop-color:#F36F56"/>
				</linearGradient>
				<path class="st4" d="M2246,1593.9v1011.2c0,23.5-17.3,43.8-38.8,45.2l-328.6,21.8L689.3,2751l-124.8,8.3
					c-25.7,1.7-46.5-17.9-46.5-43.7V1605.3c0-25.8,20.9-46.9,46.5-47l622.5-2.6l211-0.9l168.1-0.7l147.8-0.6l493.2-2.1
					C2228.6,1551.4,2246,1570.4,2246,1593.9z"/>
				<g class="st5">
					
						<linearGradient id="SVGID_5_" gradientUnits="userSpaceOnUse" x1="620.8066" y1="2214.7366" x2="2200.9087" y2="2214.7366" gradientTransform="matrix(0.9925 -0.1222 0.1222 0.9925 -340.301 113.0759)">
						<stop  offset="0" style="stop-color:#FFC444"/>
						<stop  offset="0.9964" style="stop-color:#F36F56"/>
					</linearGradient>
					<path class="st6" d="M2081.9,2257.5c29.2-4.9,50.8-32.8,48.2-62.2l-8.9-100.2c-2.6-29.4-28.4-49.3-57.6-44.4l-56.4,9.3
						c-12.2-45.6-29-88.6-50-128.9l48-37.6c24-18.9,29.8-52.9,12.9-76l-57.6-78.8c-16.9-23.1-50.2-26.7-74.3-7.8l-50.6,39.5
						c-32.6-30.8-68.5-57.9-107.2-80.9l26.8-59.9c12.5-27.9,0.8-59.2-26-70l-15.2-6.1l-147.8,0.6l0,0l-27.5,61.4
						c-43.9-9.2-89.5-14-136.4-13.9l-4.2-46.8l-211,0.9c-0.7,4.3-0.9,8.8-0.4,13.2l5.8,65.9c-45.9,14.6-89.8,33.6-131.4,56.5
						l-38-51.4c-17.3-23.5-51.4-27.1-76.2-8l-84.5,65c-24.8,19.1-30.9,53.6-13.5,77.1l37.3,50.3c-34.4,35.1-65.4,73.4-92.5,114.3
						l-57.7-22.5c-27.6-10.8-60.4,3.5-73.3,31.9l-43.9,96.9c-12.9,28.5-1,60.2,26.7,70.9l55.1,21.3c-13.9,46.7-23.1,94.9-27.2,144
						l-58.5,9.7c-30.4,5-53,33.5-50.3,63.5l9.1,102.4c2.7,30,29.5,50.2,59.9,45.1l55.3-9.3c11.3,47.8,27.6,93,48.5,135.1l-43.5,34
						c-25,19.5-31,54.2-13.5,77.6l8.9,11.8l1189.2-78.9c15.4-20.2,29.7-41.2,42.9-62.8l44.2,17.1c26.7,10.3,58.4-4.1,70.8-32.1
						l42.2-95.5c12.4-28,0.8-59.1-25.9-69.5l-46.5-18.1c12.4-47,20-95.5,22.4-144.7L2081.9,2257.5z M1392.5,2689.7
						c-225.3,39-425.1-111.8-445.1-337c-20-225.2,147.7-437.4,373.2-473.9c224.2-36.3,420.9,115.1,440.7,337.8
						C1781,2439.2,1616.5,2650.9,1392.5,2689.7z"/>
				</g>
				<path class="st7" d="M1442.6,1512.5c0,11.8-9.1,21.4-20.3,21.4c-11.2,0-20.3-9.5-20.3-21.3c0-11.8,9.1-21.4,20.3-21.4
					C1433.5,1491.2,1442.6,1500.7,1442.6,1512.5z"/>
				<path class="st8" d="M1837.2,2383.3c-136-73.6-242.9,19.7-346-72.3c-62.5-55.8-31.8-97.4-108.8-180.7
					c-85.2-92.3-140.7-61.3-226.4-144.4c-108.3-105-54.1-186.8-147.4-262.2c-113.2-91.5-235.3-6.8-343-94.6
					c-46.5-37.8-72-92.9-85.3-151.4H474.8c-18.5,0-33.5,15.1-33.5,33.6V2826c0,18.6,15,32.6,33.5,31.3l1797.4-128.3
					c8.8-0.6,16.6-5.8,21.7-13.3c-131.6-4.8-212.4-49.2-264.1-95.1C1928.7,2530.8,1946.2,2442.3,1837.2,2383.3z"/>
			</g>
			<linearGradient id="SVGID_6_" gradientUnits="userSpaceOnUse" x1="441.3085" y1="2861.9919" x2="3255.0784" y2="2861.9919">
				<stop  offset="0" style="stop-color:#40447E"/>
				<stop  offset="0.9964" style="stop-color:#3C3B6B"/>
			</linearGradient>
			<path class="st9" d="M2332.4,2725.5l-1891.1,132l824.5,139.8c9.4,1.6,19,2,28.5,1.3l1960.7-156.3l-892.6-115.9
				C2352.5,2725.1,2342.4,2724.8,2332.4,2725.5z"/>
			<linearGradient id="SVGID_7_" gradientUnits="userSpaceOnUse" x1="717.2458" y1="2840.2039" x2="2778.8774" y2="2840.2039">
				<stop  offset="0" style="stop-color:#40447E"/>
				<stop  offset="0.9964" style="stop-color:#3C3B6B"/>
			</linearGradient>
			<polygon class="st10" points="717.2,2860.7 2291.6,2749.2 2778.9,2812 1218.1,2931.2 			"/>
		</g>
		<g>
			<g>
				<linearGradient id="SVGID_8_" gradientUnits="userSpaceOnUse" x1="2445.2817" y1="320.2982" x2="1168.5397" y2="2873.7769">
					<stop  offset="0" style="stop-color:#FF9085"/>
					<stop  offset="1" style="stop-color:#FB6FBB"/>
				</linearGradient>
				<path class="st11" d="M2707.3,674.6L1311,627c-46.7-1.6-84.7,35.2-84.7,82.2v1019c0,47,38,84.2,84.7,83.1l1396.2-32.1
					c40.5-0.9,73.2-36.9,73.2-80.4v-943C2780.4,712.3,2747.7,675.9,2707.3,674.6z"/>
				<path class="st12" d="M1253.4,1706.8V731c0-43.5,35.2-77.6,78.4-76.2l1357.4,44.4c37.6,1.2,67.9,34.9,67.9,75.3v905.4
					c0,40.4-30.4,73.7-67.9,74.5l-1357.4,29.4C1288.6,1784.8,1253.4,1750.3,1253.4,1706.8z"/>
				<linearGradient id="SVGID_9_" gradientUnits="userSpaceOnUse" x1="1869.606" y1="222.7727" x2="2133.3735" y2="1277.8466">
					<stop  offset="0" style="stop-color:#AB316D"/>
					<stop  offset="1" style="stop-color:#792D3D"/>
				</linearGradient>
				<path class="st13" d="M2707.3,674.6L1311,627c-46.7-1.6-84.7,35.2-84.7,82.2v61l1554.1,42v-56.5
					C2780.4,712.3,2747.7,675.9,2707.3,674.6z"/>
				<path class="st7" d="M1377,705.6c0,15.3-12.3,27.3-27.5,26.9c-15.2-0.4-27.6-13.2-27.6-28.5c0-15.3,12.3-27.3,27.6-26.8
					C1364.7,677.5,1377,690.3,1377,705.6z"/>
				<path class="st7" d="M1472.9,708.5c0,15.2-12.2,27.2-27.2,26.7c-15.1-0.4-27.3-13.1-27.3-28.4s12.2-27.2,27.3-26.7
					C1460.8,680.6,1472.9,693.3,1472.9,708.5z"/>
				<path class="st7" d="M1568,711.4c0,15.1-12.1,27-27,26.6c-14.9-0.4-27.1-13.1-27.1-28.3s12.1-27.1,27.1-26.6
					C1555.9,683.6,1568,696.2,1568,711.4z"/>
				<linearGradient id="SVGID_10_" gradientUnits="userSpaceOnUse" x1="1325.0763" y1="1230.2985" x2="2695.0229" y2="1230.2985">
					<stop  offset="0" style="stop-color:#FF9085"/>
					<stop  offset="1" style="stop-color:#FB6FBB"/>
				</linearGradient>
				<polygon class="st14" points="2695,1425.3 1325.1,1431.8 1325.1,1028.8 2695,1049 				"/>
				<polygon class="st7" points="2695,1520.3 1325.1,1533.5 1325.1,1490.2 2695,1479.9 				"/>
				<polygon class="st7" points="2695,1619.5 1325.1,1639.6 1325.1,1596.4 2695,1579 				"/>
				<g>
					<polygon class="st7" points="2061.9,941.5 1325.1,927.1 1325.1,970.4 2061.9,983.3 					"/>
					<polygon class="st7" points="2616.8,952.4 2616.8,993 2695,994.4 2695,953.9 					"/>
				</g>
				<g class="st15">
					<path class="st7" d="M2163.8,1196.5c-163.1-237.3-445.3-162.4-623.6-424.5c-32.2-47.2-54-95.3-68.9-139.6L1311,627
						c-46.7-1.6-84.7,35.2-84.7,82.2v1019c0,47,38,84.2,84.7,83.1l1061.9-24.4c-31.8-45.7-61.1-96.7-85.9-153.8
						C2191.8,1414.5,2262.3,1339.8,2163.8,1196.5z"/>
				</g>
				<g>
					<polygon class="st7" points="1516.3,1129.9 1349.5,1128.2 1349.5,1080.3 1516.3,1082.5 					"/>
					<polygon class="st7" points="2407.8,1139.4 1622.9,1131.1 1622.9,1083.8 2407.8,1093.9 					"/>
					<polygon class="st7" points="1785.6,1212.9 1622.9,1211.8 1622.9,1164.5 1785.6,1166 					"/>
					<polygon class="st7" points="2655.2,1218.9 1889.4,1213.6 1889.4,1167 2655.2,1173.9 					"/>
					<polygon class="st7" points="1785.6,1293 1622.9,1292.5 1622.9,1245.3 1785.6,1246.1 					"/>
					<polygon class="st7" points="2655.2,1295.7 1889.4,1293.3 1889.4,1246.7 2655.2,1250.7 					"/>
					<polygon class="st7" points="1516.3,1373.3 1349.5,1373.4 1349.5,1325.6 1516.3,1325.8 					"/>
					<polygon class="st7" points="2407.8,1372.7 1622.9,1373.2 1622.9,1326 2407.8,1327.1 					"/>
				</g>
			</g>
			<g>
				<linearGradient id="SVGID_11_" gradientUnits="userSpaceOnUse" x1="2173.6118" y1="1692.6163" x2="3216.4336" y2="1692.6163">
					<stop  offset="3.597120e-03" style="stop-color:#E38DDD"/>
					<stop  offset="1" style="stop-color:#9571F6"/>
				</linearGradient>
				<path class="st16" d="M3146.9,916.5l-896.4-9.5c-42.4-0.4-76.9,35.5-76.9,80.2v1415.1c0,44.8,34.5,78.7,76.9,75.7l896.4-61.7
					c38.5-2.7,69.5-39.2,69.5-81.6V994C3216.4,951.6,3185.4,916.9,3146.9,916.5z"/>
				<path class="st12" d="M2198.2,2380.8V1007.3c0-41.4,31.9-74.7,71.1-74.3l860.4,7.9c35.7,0.3,64.6,32.5,64.6,71.8v1304.5
					c0,39.3-28.9,73.2-64.6,75.6l-860.4,58.1C2230.1,2453.6,2198.2,2422.2,2198.2,2380.8z"/>
				<linearGradient id="SVGID_12_" gradientUnits="userSpaceOnUse" x1="2701.4177" y1="957.9771" x2="2597.7983" y2="1894.5425">
					<stop  offset="0" style="stop-color:#40447E"/>
					<stop  offset="0.9964" style="stop-color:#3C3B6B"/>
				</linearGradient>
				<path class="st17" d="M3146.9,916.5l-896.4-9.4c-42.4-0.4-76.9,35.5-76.9,80.2v58.1l1042.8,3.7V994
					C3216.4,951.6,3185.4,916.9,3146.9,916.5z"/>
				<path class="st7" d="M3147.2,981.5c0,14.4-11,26-24.5,26c-13.6-0.1-24.6-11.9-24.6-26.3s11-26.1,24.6-26
					C3136.2,955.3,3147.2,967.1,3147.2,981.5z"/>
				<linearGradient id="SVGID_13_" gradientUnits="userSpaceOnUse" x1="2263.239" y1="1698.8131" x2="3135.2603" y2="1698.8131">
					<stop  offset="3.597120e-03" style="stop-color:#E38DDD"/>
					<stop  offset="1" style="stop-color:#9571F6"/>
				</linearGradient>
				<polygon class="st18" points="3135.3,2071.7 2263.2,2115.8 2263.2,1289.5 3135.3,1281.8 				"/>
				<polygon class="st7" points="3135.3,2164.4 2263.2,2212.8 2263.2,2171.5 3135.3,2125 				"/>
				<polygon class="st7" points="3135.3,2261 2263.2,2313.9 2263.2,2272.7 3135.3,2221.6 				"/>
				<g>
					<polygon class="st7" points="2933,1189.9 2263.2,1192.5 2263.2,1233.8 2933,1229.7 					"/>
					<polygon class="st7" points="3061,1189.4 3061,1229 3135.3,1228.5 3135.3,1189.1 					"/>
				</g>
				<g class="st19">
					<path class="st7" d="M2911.3,1762.2c-144.1-189.8-325-195.2-425.7-398.2c-72.9-147-62.6-314.4-30.2-454.8l-205-2.2
						c-42.4-0.4-76.9,35.5-76.9,80.2v1415.1c0,44.8,34.5,78.7,76.9,75.7l805.9-55.5C3081.2,2064.2,2995,1872.4,2911.3,1762.2z"/>
				</g>
				<g>
					<polygon class="st7" points="2413.2,1372.1 2320.6,1373.4 2320.8,1332.2 2413.4,1331.2 					"/>
					<polygon class="st7" points="2911.1,1365.5 2472.5,1371.3 2472.6,1330.6 2911.3,1326 					"/>
					<polygon class="st7" points="2562.8,1439.2 2472.2,1440.9 2472.4,1400.2 2563,1398.8 					"/>
					<polygon class="st7" points="3049.9,1430.2 2620.7,1438.2 2620.9,1397.9 3050.1,1391.2 					"/>
					<polygon class="st7" points="2562.5,1508.3 2471.9,1510.5 2472.1,1469.8 2562.7,1467.9 					"/>
					<polygon class="st7" points="3049.6,1496.8 2620.4,1507 2620.6,1466.7 3049.8,1457.8 					"/>
					<polygon class="st7" points="2412.5,1581.8 2319.8,1584.4 2320,1543.3 2412.6,1540.9 					"/>
					<polygon class="st7" points="2910.2,1567.4 2471.7,1580 2471.8,1539.3 2910.4,1528 					"/>
					<polygon class="st7" points="2562,1646.5 2471.4,1649.6 2471.6,1608.9 2562.1,1606.1 					"/>
					<polygon class="st7" points="3048.9,1629.9 2619.9,1644.5 2620,1604.3 3049.1,1591 					"/>
					<polygon class="st7" points="2561.7,1715.6 2471.1,1719.1 2471.3,1678.4 2561.8,1675.1 					"/>
					<polygon class="st7" points="3048.6,1696.5 2619.6,1713.3 2619.7,1673 3048.8,1657.5 					"/>
					<polygon class="st7" points="2561.4,1784.6 2470.9,1788.6 2471,1747.9 2561.6,1744.2 					"/>
					<polygon class="st7" points="3048.3,1763 2619.3,1782 2619.5,1741.8 3048.4,1724.1 					"/>
					<polygon class="st7" points="2708.9,1846.3 2620.4,1850.7 2620.6,1810.4 2709.1,1806.3 					"/>
					<polygon class="st7" points="3114.8,1826.2 2765.6,1843.5 2765.7,1803.7 3115,1787.5 					"/>
					<polygon class="st7" points="2411.1,1930.8 2318.6,1935.8 2318.7,1894.7 2411.3,1889.9 					"/>
					<polygon class="st7" points="2908.6,1903.6 2470.3,1927.5 2470.5,1886.9 2908.8,1864.3 					"/>
					<polygon class="st7" points="2560.6,1991.6 2470.1,1997 2470.2,1956.3 2560.7,1951.2 					"/>
					<polygon class="st7" points="3047.3,1962.5 2618.4,1988.1 2618.6,1947.9 3047.5,1923.6 					"/>
					<polygon class="st7" points="2560.3,2060.5 2469.8,2066.4 2469.9,2025.8 2560.4,2020.2 					"/>
					<polygon class="st7" points="3047,2029 2618.2,2056.8 2618.3,2016.6 3047.1,1990.1 					"/>
				</g>
			</g>
		</g>
		<g>
			<g>
				<linearGradient id="SVGID_14_" gradientUnits="userSpaceOnUse" x1="3115.7957" y1="2459.355" x2="2832.4021" y2="3000.1167">
					<stop  offset="0" style="stop-color:#AA80F9"/>
					<stop  offset="0.9964" style="stop-color:#6165D7"/>
				</linearGradient>
				<path class="st20" d="M2802,3157.9c-33-2.6-75.3-11.8-115.9-38.3c-43.9-28.7-101.1-87.7-86.2-124.9
					c5.6-13.9,21.6-25.8,35.7-24.6c20.8,1.7,23.3,30.6,59.4,62.1c6.7,5.8,41.3,35.9,58.4,25.8c8.5-5,11.1-19,9.7-29.6
					c-4.1-31-42-35.8-78.4-69.4c-36.9-34.1-67.7-93.5-50.1-133.7c10.1-23.1,36.9-41.3,54.5-36.2c7.5,2.2,12.3,8.3,35.1,57.6
					c18.7,40.5,22.9,52.3,35,56.1c12.4,3.9,31.8-1,39.1-13.3c19.1-31.9-63.5-79-71-168.2c-3.4-40,7.5-99.3,43.7-112
					c24.5-8.6,59.4,4.5,72,27c11.4,20.2-2.4,35.5,6.2,81c2.6,13.8,8,42.2,19.5,43.7c13.4,1.7,28.4-34.5,31.9-43.3
					c26.1-66.4-3.8-100.6,20.8-132.8c19.2-25.1,61-35.2,94.1-22.5c29,11.1,52.1,40,53.7,69.9c1.6,30.5-24,60.8-75.3,121.5
					c-24.3,28.8-43.6,48.2-42.5,76.8c0.5,13.9,6.1,33.5,16,35.3c22,4,32.9-84.8,85.1-98.5c26.7-7,59.9,6.8,74.5,30.9
					c17.9,29.5,5.9,71.4-16.6,93.4c-29.3,28.7-59.4,6.9-114.5,37.7c-24.5,13.7-62.9,42.8-57.3,66.8c2.5,10.5,13.4,20.7,25.5,22.1
					c27,3.1,35.9-41.2,79.4-60.7c31.3-14,74.6-12.5,84.8,5.1c14.5,24.9-37,81.5-64.4,106.5C3030.7,3099.4,2952.6,3156.7,2802,3157.9
					z"/>
				<g class="st15">
					<path class="st7" d="M2816.9,3143.7c-4.4-74,44.7-224.9,80.4-296.2c34.9-69.8,68.3-180.1,68.6-181.2l2.2,0.7
						c-0.3,1.1-33.8,111.7-68.8,181.6c-35.6,71.1-84.5,221.3-80.1,295L2816.9,3143.7z"/>
				</g>
			</g>
			<linearGradient id="SVGID_15_" gradientUnits="userSpaceOnUse" x1="2917.7454" y1="2866.2212" x2="2592.4675" y2="3256.1624">
				<stop  offset="3.597120e-03" style="stop-color:#E38DDD"/>
				<stop  offset="1" style="stop-color:#9571F6"/>
			</linearGradient>
			<path class="st21" d="M2724.1,3167.6c-24.9-34.5-61.4-96.9-67.9-180.3c-2.7-34.4-8-101.5,33.1-159.4
				c20.5-28.9,63.9-71.5,93.2-59.2c18.9,7.9,30.6,38.1,25.3,61c-5.4,23.1-24.9,25.2-46.2,64.4c-7.9,14.5-16.9,31.5-10,41.2
				c5.8,8,21.6,9.5,33.5,4.7c24.5-10,16.9-40.5,43.4-62.4c18.9-15.6,50.3-22.9,63.9-10.1c11.8,11.1,9.7,37-0.7,54.2
				c-16.7,27.6-46.6,19.5-66.1,49.7c-8.6,13.4-14.8,33.6-7.2,41.6c8.6,9.1,34,1.2,50.3-8.8c21.5-13.3,22.3-27.5,36.4-29.2
				c15.8-2,35.5,13,38.6,29.7c4.3,23.3-24.2,48.4-46.8,59.3c-28.9,14-50.5,5.8-64.6,24.8c-5.2,7-9.9,18.4-5.7,25.4
				c6.1,9.9,28,6.6,42.6,4.5c35.5-5.3,45.2-18.1,57.9-11.9c12.9,6.3,19.5,27.7,13.9,42.7c-3.1,8.3-12.4,21.2-58.4,29.3
				C2850.4,3184.2,2796.3,3188.2,2724.1,3167.6z"/>
		</g>
		<g>
			
				<linearGradient id="SVGID_16_" gradientUnits="userSpaceOnUse" x1="1379.8668" y1="836.5886" x2="377.9957" y2="2840.3267" gradientTransform="matrix(0.9925 -0.1222 0.1222 0.9925 -340.301 113.0759)">
				<stop  offset="0" style="stop-color:#FB6FBB"/>
				<stop  offset="1" style="stop-color:#FF9085"/>
			</linearGradient>
			<path class="st22" d="M888.9,2229.7c0,0-451.9-654.9-10.4-1175.3L765.4,1034L1116,930.3l-104.9,281.5l-45.1-88.3
				C966,1123.5,634.6,1446.1,888.9,2229.7z"/>
			<linearGradient id="SVGID_17_" gradientUnits="userSpaceOnUse" x1="1252.2754" y1="2302.3267" x2="2347.6472" y2="2302.3267">
				<stop  offset="3.597120e-03" style="stop-color:#E38DDD"/>
				<stop  offset="1" style="stop-color:#9571F6"/>
			</linearGradient>
			<path class="st23" d="M1252.3,2540c0,0,694.6,236,1045.1-286.6l46.5,95.2l3.8-337.1l-223.3,163.9l89.7,17.8
				C2214,2193.2,2011.3,2568.3,1252.3,2540z"/>
			<g>
				<path class="st7" d="M699,2249l5.6,62.8c1.6,18.4,18.1,30.8,36.7,27.6l33.9-5.7c6.9,29.3,17,57,29.8,82.9l-26.7,20.8
					c-15.3,12-19,33.3-8.3,47.6l36.5,48.8c10.7,14.3,31.8,16.2,47,4.2l25.2-19.8c21,20.5,44.4,38.5,69.7,53.6l-12.5,28
					c-7.8,17.5-0.6,36.8,16.3,43.2l57.3,21.6c16.8,6.3,36.7-2.7,44.5-20.2l12-26.9c29.1,6.1,59.4,8.9,90.5,8.3l2.5,27.8
					c1.6,18.2,17.8,30.4,36.1,27.1l62.3-11.1c18.2-3.2,31.7-20.6,30.1-38.8l-2.5-27.7c30-10.1,58.6-23.3,85.4-39.2l16.1,21.8
					c10.5,14.1,31,16,45.9,4.1l50.6-40.3c14.8-11.8,18.4-32.8,8-46.9l-16.7-22.6c21.4-23,40.4-48,56.7-74.7l27.1,10.5
					c16.4,6.3,35.8-2.5,43.4-19.7l25.9-58.6c7.6-17.2,0.5-36.2-15.9-42.6l-28.5-11.1c7.6-28.8,12.3-58.6,13.8-88.7l32.6-5.5
					c17.9-3,31.1-20.1,29.5-38.1l-5.5-61.5c-1.6-18-17.4-30.2-35.3-27.3l-34.6,5.7c-7.5-27.9-17.8-54.4-30.7-79l29.5-23.1
					c14.7-11.6,18.3-32.4,7.9-46.6l-35.4-48.3c-10.4-14.2-30.8-16.4-45.6-4.8l-31,24.2c-20-18.9-42-35.5-65.7-49.6l16.4-36.7
					c7.6-17.1,0.5-36.3-16-42.9l-56.2-22.5c-16.5-6.6-36.1,2-43.8,19.1l-16.9,37.7c-26.9-5.7-54.9-8.6-83.6-8.5l-3.6-40.3
					c-1.6-18.2-17.7-30.6-36-27.8l-62.4,9.8c-18.3,2.9-31.9,20-30.3,38.2l3.6,40.4c-28.1,8.9-55.1,20.6-80.6,34.7l-23.3-31.5
					c-10.6-14.4-31.5-16.6-46.7-4.9l-51.8,39.9c-15.2,11.7-18.9,32.9-8.3,47.3l22.9,30.9c-21.1,21.5-40.1,45-56.7,70.1l-35.4-13.8
					c-16.9-6.6-37,2.2-44.9,19.6l-26.9,59.4c-7.9,17.5-0.6,36.9,16.4,43.5l33.8,13.1c-8.5,28.6-14.2,58.2-16.7,88.3l-35.9,6
					C711.1,2213.1,697.3,2230.6,699,2249z M933.7,2248c-12.3-138.1,90.6-268.3,228.9-290.7c137.5-22.2,258.1,70.6,270.3,207.1
					c12.1,136.6-88.8,266.5-226.1,290.2C1068.5,2478.6,945.9,2386.1,933.7,2248z"/>
			</g>
		</g>
	</g>
</g>
</svg>
